<svg width="46" height="46" viewBox="0 0 46 46" fill="none" xmlns="http://www.w3.org/2000/svg">
<path d="M36.4167 9.58333H32.5833V5.75H13.4167V9.58333H9.58333C7.475 9.58333 5.75 11.3083 5.75 13.4167V15.3333C5.75 20.2208 9.43 24.2075 14.1642 24.8017C15.3717 27.6767 17.9592 29.8425 21.0833 30.475V36.4167H13.4167V40.25H32.5833V36.4167H24.9167V30.475C28.0408 29.8425 30.6283 27.6767 31.8358 24.8017C36.57 24.2075 40.25 20.2208 40.25 15.3333V13.4167C40.25 11.3083 38.525 9.58333 36.4167 9.58333ZM9.58333 15.3333V13.4167H13.4167V20.7383C11.1933 19.9333 9.58333 17.825 9.58333 15.3333ZM23 26.8333C19.8375 26.8333 17.25 24.2458 17.25 21.0833V9.58333H28.75V21.0833C28.75 24.2458 26.1625 26.8333 23 26.8333ZM36.4167 15.3333C36.4167 17.825 34.8067 19.9333 32.5833 20.7383V13.4167H36.4167V15.3333Z" fill="#1E6091"/>
</svg>
