<svg width="46" height="46" viewBox="0 0 46 46" fill="none" xmlns="http://www.w3.org/2000/svg">
<path d="M22.9996 13.5025C21.4645 13.5025 20.0219 14.098 18.9335 15.1864C18.3987 15.7197 17.9746 16.3535 17.6856 17.0513C17.3966 17.7492 17.2484 18.4972 17.2496 19.2525C17.2496 20.7876 17.8503 22.2302 18.9335 23.3186C19.4668 23.8534 20.1006 24.2775 20.7984 24.5665C21.4962 24.8555 22.2443 25.0037 22.9996 25.0025C24.5346 25.0025 25.9773 24.4018 27.0657 23.3186C28.154 22.2302 28.7496 20.7876 28.7496 19.2525C28.7496 17.7175 28.154 16.2748 27.0657 15.1864C25.9773 14.098 24.5346 13.5025 22.9996 13.5025ZM40.5884 11.5568C39.6219 9.32801 38.2283 7.31007 36.4864 5.6168C34.7388 3.90822 32.6785 2.55214 30.4181 1.6226C28.0668 0.647154 25.5717 0.154297 22.9996 0.154297C20.4275 0.154297 17.9324 0.647154 15.5811 1.61747C13.3067 2.55698 11.2686 3.90207 9.51275 5.61166C7.77195 7.30589 6.37857 9.32359 5.41074 11.5516C4.40963 13.8619 3.90137 16.3159 3.90137 18.8418C3.90137 22.4664 4.769 26.0755 6.47347 29.5563C7.84422 32.3543 9.75918 35.0804 12.1721 37.673C16.2947 42.0985 20.6174 44.8041 21.8444 45.528C22.1927 45.7337 22.59 45.8418 22.9944 45.8411C23.3949 45.8411 23.7902 45.7384 24.1444 45.528C25.3715 44.8041 29.6942 42.0985 33.8168 37.673C36.2297 35.0855 38.1447 32.3543 39.5154 29.5563C41.2302 26.0806 42.0978 22.4766 42.0978 18.8469C42.0978 16.321 41.5895 13.867 40.5884 11.5568ZM22.9996 28.2882C18.0094 28.2882 13.9639 24.2427 13.9639 19.2525C13.9639 14.2623 18.0094 10.2168 22.9996 10.2168C27.9898 10.2168 32.0353 14.2623 32.0353 19.2525C32.0353 24.2427 27.9898 28.2882 22.9996 28.2882Z" fill="#1E6091"/>
</svg>
