<svg width="46" height="46" viewBox="0 0 46 46" fill="none" xmlns="http://www.w3.org/2000/svg">
<path d="M22.9997 3.83301C12.4197 3.83301 3.83301 12.4197 3.83301 22.9997C3.83301 33.5797 12.4197 42.1663 22.9997 42.1663C33.5797 42.1663 42.1663 33.5797 42.1663 22.9997C42.1663 12.4197 33.5797 3.83301 22.9997 3.83301ZM22.9997 7.66634C30.053 7.66634 35.9947 12.4772 37.7772 18.9747C36.6272 18.668 35.228 18.2655 33.4455 14.6813C32.468 12.7263 30.4938 11.4997 28.2897 11.4997H17.7097C15.5055 11.4997 13.5313 12.7263 12.5538 14.6813C10.7713 18.2463 9.52551 18.6297 8.22217 18.9747C10.0047 12.4772 15.9463 7.66634 22.9997 7.66634ZM22.9997 38.333C14.5472 38.333 7.66634 31.4522 7.66634 22.9997C7.66634 22.9805 7.66634 22.9613 7.66634 22.9422C12.0938 22.5205 14.2405 19.8947 15.9847 16.4063C16.3105 15.7355 16.9622 15.333 17.7097 15.333H28.3088C29.0372 15.333 29.6888 15.7355 30.0147 16.3872C31.7397 19.8372 33.8288 22.5013 38.333 22.923C38.333 22.9422 38.333 22.9613 38.333 22.9805C38.333 31.4522 31.4522 38.333 22.9997 38.333Z" fill="#1E6091"/>
<path d="M17.2497 27.3122C18.5729 27.3122 19.6455 26.2395 19.6455 24.9163C19.6455 23.5932 18.5729 22.5205 17.2497 22.5205C15.9265 22.5205 14.8538 23.5932 14.8538 24.9163C14.8538 26.2395 15.9265 27.3122 17.2497 27.3122Z" fill="#1E6091"/>
<path d="M28.7497 27.3122C30.0729 27.3122 31.1455 26.2395 31.1455 24.9163C31.1455 23.5932 30.0729 22.5205 28.7497 22.5205C27.4265 22.5205 26.3538 23.5932 26.3538 24.9163C26.3538 26.2395 27.4265 27.3122 28.7497 27.3122Z" fill="#1E6091"/>
</svg>
