<svg width="121" height="121" viewBox="0 0 121 121" fill="none" xmlns="http://www.w3.org/2000/svg">
<path opacity="0.15" d="M26.4688 107.136C26.4688 108.139 30.0541 109.1 36.4362 109.809C42.8183 110.519 51.4743 110.917 60.5 110.917C69.5256 110.917 78.1815 110.519 84.5636 109.809C90.9457 109.1 94.5311 108.139 94.5311 107.136C94.5311 106.133 90.9457 105.171 84.5636 104.462C78.1815 103.753 69.5256 103.354 60.5 103.354C51.4743 103.354 42.8183 103.753 36.4362 104.462C30.0541 105.171 26.4688 106.133 26.4688 107.136Z" fill="#DDA5A5"/>
<path d="M101.362 67.0541L102.068 70.5832C102.068 70.5832 74.3389 80.3137 61.1045 83.1874C45.9795 86.3889 21.8804 88.5568 13.9145 89.6659C11.9467 89.9305 9.94488 89.5899 8.17527 88.6893C6.40566 87.7887 4.95205 86.3709 4.00767 84.6243L2.77246 82.4312L100.682 63.3232L101.362 67.0541Z" fill="#F7EF81" stroke="#DDA5A5" stroke-width="0.625" stroke-linecap="round" stroke-linejoin="round"/>
<path d="M101.363 67.0541L100.203 60.9285C98.4385 51.551 77.5156 40.4341 52.3073 43.0054C52.3073 43.0054 47.5177 34.3841 54.8281 31.4095C62.1385 28.435 115.126 18.3768 117.093 58.7102C117.147 60.1877 116.667 61.6353 115.741 62.7881C114.816 63.9408 113.506 64.7214 112.051 64.987L101.363 67.0541Z" fill="#412C2C"/>
<path d="M54.979 31.4095C50.1642 33.3506 50.5424 37.6864 51.3742 40.4593C52.1429 39.5115 53.1532 38.7886 54.2984 38.367C61.4324 35.4681 111.521 25.9141 116.26 62.2393C116.954 61.1971 117.299 59.9611 117.244 58.7102C115.277 18.3768 62.3399 28.435 54.979 31.4095Z" fill="#BD626D" fill-opacity="0.52"/>
<path d="M101.363 67.0543L112.177 64.9872C113.632 64.7216 114.942 63.941 115.868 62.7883C116.794 61.6355 117.273 60.1879 117.219 58.7104C117.083 55.2794 116.464 51.8848 115.379 48.627C113.284 47.9248 111.041 47.7857 108.875 48.2237C102.951 49.3329 98.7918 54.0216 99.7497 58.66L101.363 67.0543Z" fill="#F7EF81"/>
<path d="M101.363 67.0543L112.177 64.9872C113.632 64.7216 114.942 63.941 115.868 62.7883C116.794 61.6355 117.273 60.1879 117.219 58.7104C117.083 55.2794 116.464 51.8848 115.379 48.627C113.284 47.9248 111.041 47.7857 108.875 48.2237C102.951 49.3329 98.7918 54.0216 99.7497 58.66L101.363 67.0543Z" stroke="#DDA5A5" stroke-width="0.625" stroke-linecap="round" stroke-linejoin="round"/>
<path d="M101.363 67.0541L100.203 60.9285C98.4385 51.551 77.5156 40.4341 52.3073 43.0054C52.3073 43.0054 47.5177 34.3841 54.8281 31.4095C62.1385 28.435 115.126 18.3768 117.093 58.7102C117.147 60.1877 116.667 61.6353 115.741 62.7881C114.816 63.9408 113.506 64.7214 112.051 64.987L101.363 67.0541Z" stroke="#DDA5A5" stroke-width="0.625" stroke-linecap="round" stroke-linejoin="round"/>
<path d="M52.4078 43.0052L3.8313 78.2969C3.33766 78.6388 2.95201 79.1147 2.71978 79.6685C2.48755 80.2223 2.41839 80.8309 2.52046 81.4227L2.72213 82.5319L3.88171 88.6575C3.95449 89.0639 4.10703 89.4518 4.33055 89.7989C4.55406 90.1459 4.84411 90.4453 5.18395 90.6797C5.5238 90.9141 5.9067 91.0788 6.31056 91.1644C6.71441 91.25 7.13122 91.2547 7.53692 91.1783C7.9438 91.1118 8.33314 90.9641 8.6818 90.744C9.03046 90.524 9.33132 90.2361 9.56648 89.8975C9.80165 89.5588 9.96633 89.1764 10.0507 88.7728C10.1351 88.3692 10.1375 87.9528 10.0578 87.5483L9.47796 84.4729L18.679 82.7335L19.5361 87.3467C19.8219 88.5121 20.5437 89.5237 21.5529 90.173C22.562 90.8223 23.7817 91.06 24.9608 90.8371C26.14 90.6141 27.1887 89.9476 27.8912 88.9748C28.5937 88.0019 28.8965 86.7967 28.7371 85.6073L27.8548 80.9942L70.709 72.8771L71.2888 75.9525C71.3616 76.3589 71.5141 76.7468 71.7376 77.0939C71.9612 77.4409 72.2512 77.7403 72.591 77.9747C72.9309 78.2091 73.3138 78.3738 73.7177 78.4594C74.1215 78.545 74.5383 78.5497 74.944 78.4733C75.3509 78.4068 75.7402 78.2591 76.0889 78.039C76.4376 77.819 76.7384 77.5311 76.9736 77.1925C77.2087 76.8538 77.3734 76.4714 77.4578 76.0678C77.5422 75.6642 77.5446 75.2478 77.4648 74.8433L76.8851 71.7679L92.2117 68.869L93.0688 73.4821C93.3546 74.6475 94.0764 75.6591 95.0856 76.3084C96.0947 76.9577 97.3144 77.1954 98.4936 76.9725C99.6727 76.7496 100.721 76.0831 101.424 75.1102C102.126 74.1373 102.429 72.9321 102.27 71.7427L100.228 61.0292C98.4382 51.5508 77.5657 40.3331 52.4078 43.0052Z" fill="#FFC665"/>
<path d="M92.1869 68.768L93.0439 73.3811C93.3298 74.5466 94.0516 75.5581 95.0607 76.2074C96.0699 76.8567 97.2896 77.0944 98.4687 76.8715C99.6478 76.6486 100.697 75.9821 101.399 75.0092C102.102 74.0363 102.404 72.8311 102.245 71.6417L100.203 60.9282C98.4385 51.5507 77.5156 40.4338 52.3073 43.0051L49.5596 44.9965C70.2808 45.6267 86.3133 55.0799 87.851 63.2222L89.0106 69.3478L92.1869 68.768Z" fill="#E6CFA8"/>
<path d="M15.9817 78.1458C15.6889 78.14 15.4068 78.0344 15.1822 77.8464C14.9576 77.6585 14.8039 77.3994 14.7465 77.1122C14.6876 76.7848 14.7605 76.4473 14.9494 76.1734C15.1383 75.8995 15.4278 75.7114 15.7548 75.6502L92.3125 61.1554C92.6468 61.0919 92.9926 61.1637 93.2739 61.3552C93.5552 61.5467 93.7489 61.842 93.8124 62.1763C93.8759 62.5106 93.8041 62.8564 93.6126 63.1377C93.4211 63.419 93.1258 63.6127 92.7915 63.6762L16.2086 78.1458H15.9817Z" fill="#E6CFA8"/>
<path d="M76.8598 71.6671L76.2801 68.6169M92.1865 68.7681L91.0269 62.6425M18.679 82.6831L18.0992 79.6329M52.4078 43.0052L3.8313 78.2969C3.33766 78.6388 2.95201 79.1147 2.71978 79.6685C2.48755 80.2223 2.41839 80.8309 2.52046 81.4227L3.88171 88.6575C3.95449 89.0639 4.10703 89.4518 4.33055 89.7989C4.55406 90.1459 4.84411 90.4453 5.18395 90.6797C5.5238 90.9141 5.9067 91.0788 6.31056 91.1644C6.71441 91.25 7.13122 91.2547 7.53692 91.1783C7.9438 91.1118 8.33314 90.9641 8.6818 90.744C9.03046 90.524 9.33132 90.2361 9.56648 89.8975C9.80165 89.5588 9.96633 89.1764 10.0507 88.7728C10.1351 88.3692 10.1375 87.9528 10.0578 87.5483L9.47796 84.4729L18.679 82.7335L19.5361 87.3467C19.8219 88.5121 20.5437 89.5237 21.5529 90.173C22.562 90.8223 23.7817 91.06 24.9608 90.8371C26.14 90.6141 27.1887 89.9476 27.8912 88.9748C28.5937 88.0019 28.8965 86.7967 28.7371 85.6073L27.8548 80.9942L70.709 72.8771L71.2888 75.9525C71.3616 76.3589 71.5141 76.7468 71.7376 77.0939C71.9611 77.4409 72.2512 77.7403 72.591 77.9747C72.9309 78.2091 73.3138 78.3738 73.7176 78.4594C74.1215 78.545 74.5383 78.5497 74.944 78.4733C75.3509 78.4068 75.7402 78.2591 76.0889 78.039C76.4376 77.819 76.7384 77.5311 76.9736 77.1925C77.2087 76.8538 77.3734 76.4714 77.4578 76.0678C77.5422 75.6642 77.5446 75.2478 77.4648 74.8433L76.8851 71.7679L92.2117 68.869L93.0688 73.4821C93.3546 74.6476 94.0764 75.6591 95.0856 76.3084C96.0947 76.9577 97.3144 77.1954 98.4936 76.9725C99.6727 76.7496 100.721 76.0831 101.424 75.1102C102.126 74.1373 102.429 72.9321 102.27 71.7427L100.228 61.0292C98.4382 51.5508 77.5657 40.3331 52.4078 43.0052Z" stroke="#BEBEBE" stroke-width="0.625" stroke-linecap="round" stroke-linejoin="round"/>
<path d="M45.8291 58.5082C51.7531 57.399 56.0385 53.7438 55.3831 50.3659C54.9293 47.8451 52.0304 46.3326 48.2491 46.0049L34.6366 55.9118C36.3508 58.3066 40.8631 59.4661 45.8291 58.5082ZM86.465 63.5247C86.8365 63.0571 87.1087 62.5185 87.2647 61.942C87.4208 61.3655 87.4574 60.7632 87.3725 60.172C86.7422 56.7941 81.4233 54.9538 75.4993 56.063C69.5754 57.1722 65.416 60.8526 65.9454 64.2305C66.0867 64.8076 66.3425 65.3504 66.6976 65.8267C67.0527 66.303 67.4998 66.7032 68.0125 67.0034L86.465 63.5247ZM25.2087 75.0953C25.5726 74.6288 25.8383 74.0936 25.9899 73.5217C26.1416 72.9499 26.1759 72.3533 26.091 71.7678C25.6373 69.247 22.6627 67.6588 18.8058 67.4068L5.31934 77.2128C5.70844 77.7686 6.20573 78.2402 6.78142 78.5993L25.2087 75.0953ZM60.1475 68.4907C58.3577 65.2136 52.9127 63.449 46.9887 64.6338C41.0647 65.8186 36.6281 69.3226 36.1491 73.1038L60.1475 68.4907Z" fill="#C22323" stroke="#5E5E5E" stroke-width="0.625" stroke-linecap="round" stroke-linejoin="round"/>
</svg>
