<svg width="46" height="43" viewBox="0 0 46 43" fill="none" xmlns="http://www.w3.org/2000/svg">
<g clip-path="url(#clip0_634_621)">
<g filter="url(#filter0_d_634_621)">
<path d="M24.1461 1H20.8539C11.5457 1 4 8.54575 4 17.8539V17.854C4 27.1622 11.5457 34.7079 20.8539 34.7079H24.1461C33.4543 34.7079 41 27.1622 41 17.854V17.8539C41 8.54575 33.4543 1 24.1461 1Z" fill="white"/>
<path d="M17.9183 1.66812C17.9183 1.6215 17.9868 1.67444 18.0291 1.70019C18.3144 1.87379 18.5282 1.98843 18.8698 2.08794C19.5421 2.2838 20.5532 2.58992 20.9607 3.18996C21.2718 3.64814 21.6802 4.26987 21.3579 4.78467C21.1505 5.11611 21.1431 5.4682 21.4595 5.75258C21.9787 6.2191 22.3545 6.40375 22.485 7.12573C22.7316 8.49065 23.4341 9.50471 23.8922 10.7991C24.1491 11.5247 24.0193 12.2747 24.2063 13.0032C24.3487 13.5578 24.7826 14 24.8776 14.5658C24.9071 14.7409 24.8187 15.4435 25.2225 15.0964C25.7922 14.6067 25.674 13.3662 25.7583 12.7116C25.9021 11.596 26.0406 10.5466 26.0355 9.42306C26.0324 8.73888 25.9682 8.21835 26.3988 7.62718C26.7685 7.11966 27.3189 7.0429 27.917 6.94206C28.5477 6.83572 29.1066 6.53625 29.6691 6.25695C30.0537 6.06603 30.774 5.8607 31.0733 5.56017C31.3697 5.26254 31.3501 4.81039 31.5013 4.45232C31.605 4.207 31.6973 4.01616 31.5229 3.77595C31.4084 3.61821 30.9841 3.47065 30.8085 3.40278C30.2621 3.19163 29.8892 2.76642 29.2873 2.6477C28.2846 2.44992 27.2538 2.41741 26.2633 2.16957C25.7029 2.02934 25.2685 1.71096 24.6806 1.65646C24.0416 1.59724 23.4411 1.49568 22.796 1.48737C21.7594 1.47402 20.7007 1.285 19.6674 1.3416C18.8397 1.38693 18.1678 1.20977 17.5303 1.77308" stroke="#1E6091" stroke-width="1.5" stroke-linecap="round"/>
<path d="M39.7566 13.4756C39.7234 13.7897 39.4465 14.0452 39.1962 14.2161C38.5312 14.67 37.8274 14.9554 37.0529 15.1957C36.289 15.4327 35.3006 15.6174 34.7342 16.2073C34.5 16.4511 34.3631 16.7341 34.0567 16.9128C33.5675 17.1983 32.9995 17.3306 32.5355 17.6621C32.2292 17.8809 31.8047 18.3199 31.9196 18.7291C32.0668 19.2533 33.008 19.2524 33.4439 19.3239C34.4372 19.4867 35.0076 19.842 35.3839 20.7524C35.535 21.118 35.6433 21.4153 36.0367 21.6037C36.4607 21.8068 37.0165 21.8068 37.0037 22.385C36.9844 23.2513 36.3976 24.0115 36.511 24.9156C36.5933 25.5723 37.2932 25.8749 37.832 25.4199C38.1396 25.1602 37.9346 25.4454 38.2354 25.4112C38.5636 25.3739 38.6084 25.2252 38.8143 25.0205C39.5494 24.2898 39.7665 23.0378 39.8675 22.0585C39.9213 21.5364 40.128 21.0562 40.1415 20.525C40.158 19.8779 40.1348 19.2352 40.1877 18.5892C40.2866 17.3816 40.3182 16.1502 40.1446 14.9449" stroke="#1E6091" stroke-width="1.5" stroke-linecap="round"/>
<path d="M16.4218 23.1833C16.0924 23.109 15.9992 22.9713 15.7628 22.746C14.9897 22.0092 14.286 22.0343 13.4225 22.6643C13.0097 22.9655 12.6669 23.4331 12.5664 23.9238C12.4117 24.6788 12.8926 24.8322 13.4656 25.1832C13.9517 25.4811 13.8823 25.8917 13.8259 26.3727C13.7677 26.8684 14.1283 27.2494 14.4356 27.6176C14.8993 28.1732 15.5096 28.5264 16.2801 28.4835C17.1308 28.4361 17.5629 28.1929 18.3433 28.6059C19.4283 29.1802 20.9285 27.5809 21.0593 26.6584C21.1272 26.1795 20.7658 25.4274 20.5666 24.9967C20.3696 24.5709 19.8701 24.4047 19.6797 23.9588C19.5686 23.6985 19.4995 23.4285 19.3225 23.1949C19.0288 22.8073 18.5591 23.0822 18.1616 22.9442C17.9565 22.873 17.7532 22.343 17.5519 22.4136C17.1851 22.5422 16.8745 22.6516 16.4772 22.711" stroke="#1E6091" stroke-width="1.5" stroke-linecap="round"/>
<path d="M8.38458 7.5459C8.43431 7.69656 8.65709 7.63967 8.78182 7.6217C9.24504 7.55496 9.51574 7.73591 9.79493 8.08233C10.2425 8.63775 10.6848 8.84882 11.4208 8.95112C11.7745 9.00027 12.2123 9.01424 12.4247 9.34178C12.9872 10.2092 11.8752 11.013 11.3654 11.54C10.5261 12.4075 10.1127 12.4238 8.95734 12.33C8.6217 12.3028 8.4853 12.2176 8.18134 12.0939C7.88382 11.9729 7.52569 12.0491 7.24829 11.9044C6.66823 11.6018 6.35656 10.8308 6.56467 10.2397C6.72766 9.77679 7.20025 9.45364 7.46693 9.05315C7.75063 8.62711 7.92144 8.24986 8.27372 7.86076" stroke="#1E6091" stroke-width="1.5" stroke-linecap="round"/>
</g>
</g>
<defs>
<filter id="filter0_d_634_621" x="0" y="0.581055" width="45.0186" height="42.127" filterUnits="userSpaceOnUse" color-interpolation-filters="sRGB">
<feFlood flood-opacity="0" result="BackgroundImageFix"/>
<feColorMatrix in="SourceAlpha" type="matrix" values="0 0 0 0 0 0 0 0 0 0 0 0 0 0 0 0 0 0 127 0" result="hardAlpha"/>
<feOffset dy="4"/>
<feGaussianBlur stdDeviation="2"/>
<feComposite in2="hardAlpha" operator="out"/>
<feColorMatrix type="matrix" values="0 0 0 0 0 0 0 0 0 0 0 0 0 0 0 0 0 0 0.25 0"/>
<feBlend mode="normal" in2="BackgroundImageFix" result="effect1_dropShadow_634_621"/>
<feBlend mode="normal" in="SourceGraphic" in2="effect1_dropShadow_634_621" result="shape"/>
</filter>
<clipPath id="clip0_634_621">
<rect width="46" height="43" fill="white"/>
</clipPath>
</defs>
</svg>
